<?xml version="1.0" standalone="no"?>
<!DOCTYPE svg PUBLIC "-//W3C//DTD SVG 20010904//EN"
 "http://www.w3.org/TR/2001/REC-SVG-20010904/DTD/svg10.dtd">
<svg version="1.0" xmlns="http://www.w3.org/2000/svg"
 width="582.000000pt" height="582.000000pt" viewBox="0 0 582.000000 582.000000"
 preserveAspectRatio="xMidYMid meet">
<metadata>
Created by potrace 1.14, written by Peter Selinger 2001-2017
</metadata>
<g transform="translate(0.000000,582.000000) scale(0.100000,-0.100000)"
fill="#000000" stroke="none">
<path d="M2648 5805 c-2 -1 -41 -5 -88 -9 -47 -3 -98 -8 -115 -10 -44 -7 -98
-16 -115 -21 -8 -2 -31 -6 -50 -9 -19 -3 -73 -17 -120 -31 -47 -14 -93 -27
-102 -30 -36 -8 -207 -79 -288 -120 -121 -60 -309 -178 -360 -225 -9 -8 -36
-31 -60 -50 -68 -53 -239 -226 -307 -310 -92 -114 -180 -250 -255 -397 -37
-73 -68 -137 -68 -144 0 -6 -7 -25 -15 -42 -31 -68 -98 -301 -110 -382 -6 -46
-18 -121 -21 -140 -6 -27 -16 -218 -16 -280 0 -103 16 -288 26 -304 7 -10 -4
-23 -47 -55 -88 -65 -136 -135 -152 -219 -29 -155 12 -239 138 -281 17 -5 15
-10 -15 -45 -47 -55 -80 -126 -86 -182 -4 -40 -1 -48 19 -63 29 -20 85 -21
133 -1 20 8 39 16 43 16 5 1 17 5 28 9 61 23 60 23 79 -32 11 -29 23 -59 29
-66 12 -16 7 -22 -28 -28 -34 -6 -93 -36 -122 -61 -56 -49 -85 -162 -57 -228
13 -32 88 -98 111 -97 4 0 13 -4 18 -8 6 -5 22 -11 35 -13 39 -8 117 -44 126
-59 5 -7 10 -51 11 -98 7 -208 93 -283 280 -245 21 5 44 9 52 11 8 1 46 -30
85 -69 94 -95 115 -112 211 -162 115 -61 277 -115 392 -130 17 -2 51 -7 75
-11 134 -21 395 -21 568 1 92 11 126 16 150 20 14 3 41 7 60 11 19 3 40 7 45
8 6 2 28 6 50 11 22 4 76 16 120 27 44 10 88 21 98 23 10 2 27 7 37 10 10 3
27 8 37 10 37 8 240 74 307 99 37 14 72 26 76 26 5 0 14 -15 20 -34 26 -81
115 -163 203 -190 99 -30 222 1 297 74 104 102 126 249 48 330 -15 17 -35 30
-43 30 -8 0 -15 4 -15 8 0 8 27 25 142 87 176 95 490 301 564 370 6 6 25 21
43 35 71 53 186 164 272 261 162 182 285 422 294 571 1 25 5 50 8 55 13 22 -4
190 -27 267 -13 41 -12 45 9 68 29 31 68 103 82 151 23 76 0 212 -41 246 -21
18 -13 27 29 35 50 10 77 54 63 104 -23 85 -79 155 -184 229 -29 21 -31 26
-27 67 10 88 -50 253 -122 333 -40 46 -133 97 -200 111 -36 7 -169 7 -219 0
-20 -3 -24 3 -58 80 -13 28 -26 52 -30 52 -5 0 -8 7 -8 15 0 8 -4 15 -10 15
-5 0 -10 5 -10 10 0 10 -76 119 -90 130 -4 3 -9 10 -11 16 -6 17 -114 139
-190 214 -92 91 -133 126 -224 195 -44 33 -81 63 -83 68 -2 4 -8 7 -13 7 -5 0
-35 17 -66 37 -88 56 -267 145 -368 182 -49 18 -99 37 -110 41 -24 10 -137 40
-173 46 -14 3 -29 7 -34 10 -5 3 -23 7 -41 9 -18 2 -48 7 -67 10 -115 20 -185
26 -328 29 -67 2 -123 2 -124 1z"/>
<path d="M2547 493 c-1 0 -90 -4 -197 -7 -107 -4 -231 -9 -275 -11 -44 -3
-118 -7 -165 -10 -47 -3 -105 -7 -130 -9 -25 -3 -83 -7 -130 -11 -47 -3 -96
-7 -110 -10 -14 -2 -55 -7 -92 -10 -37 -3 -77 -8 -90 -10 -13 -2 -68 -11 -123
-19 -55 -9 -111 -18 -125 -21 -14 -3 -34 -7 -45 -9 -54 -11 -175 -50 -175 -56
0 -5 -11 -11 -25 -14 -26 -7 -46 -41 -38 -63 16 -42 261 -112 483 -138 19 -3
51 -7 70 -9 73 -11 197 -24 295 -31 39 -3 93 -7 120 -10 48 -4 193 -13 335
-20 644 -32 1492 -20 2030 30 30 2 82 7 115 10 57 5 79 7 193 21 69 8 142 20
217 34 28 5 64 12 81 15 43 7 164 44 196 61 76 39 69 79 -22 120 -34 15 -194
58 -255 68 -66 11 -249 37 -293 41 -26 3 -65 7 -87 10 -120 13 -222 21 -535
40 -215 13 -1213 28 -1223 18z"/>
</g>
</svg>
